<?xml version="1.0" encoding="UTF-8"?><svg id="Capa_2" xmlns="http://www.w3.org/2000/svg" viewBox="0 0 152.44 270.82"><defs><style>.cls-1{fill:#fff;}</style></defs><g id="Capa_1-2"><path class="cls-1" d="M144.75,192.71L24.79,123.07v-50.29l105.67-47.68v16.87c0,12.13,9.83,21.96,21.96,21.96h0V16.84c0-4.64-1.69-9.24-5.08-12.41-4.94-4.59-11.91-5.66-17.85-2.98L12.4,54.28c-5.83,2.62-9.57,8.42-9.57,14.81v57.27c0,5.66,2.87,10.82,7.68,13.81l112.66,65.4-101.21,40.54v-12.29C21.96,221.69,12.13,211.86,0,211.86h0v42.14c0,4.09,1.28,8.18,3.99,11.24,3.28,3.71,7.83,5.58,12.31,5.58,2.1,0,4.18-.41,6.11-1.24l120.17-48.13c5.59-2.4,9.34-7.65,9.8-13.72.45-6.06-2.47-11.81-7.63-15.02Z"/><path class="cls-1" d="M152.44,141.48v42.86c-.94-.75-1.91-1.47-2.98-2.13l-18.98-11.01v-24.56s-90.2-50.3-90.2-50.3v-14.05s10.98-4.96,10.98-4.96l94.94,53.15c3.86,2.32,6.24,6.56,6.24,11.01Z"/></g></svg>